<svg width="99" height="9" viewBox="0 0 99 9" fill="none" xmlns="http://www.w3.org/2000/svg">
<g clip-path="url(#clip0_376_2173)">
<path d="M0 0.152832H6.11142V1.65185H1.95515V3.98562H5.75193V5.42586H1.95515V8.84715H0V0.152832Z" fill="#2FB22F"/>
<path d="M7.3916 0.152832H13.5724V1.65185H9.34045V3.73872H13.3327V5.1672H9.34045V7.34813H13.5724V8.84715H7.3916V0.152832Z" fill="#2FB22F"/>
<path d="M15.1182 0.152832H21.299V1.65185H17.067V3.73872H21.0593V5.1672H17.067V7.34813H21.299V8.84715H15.1182V0.152832Z" fill="#2FB22F"/>
<path d="M22.8442 0.152832H26.4076C27.341 0.152832 28.142 0.31743 28.8043 0.652505C29.4665 0.987581 29.971 1.4755 30.3242 2.11625C30.6774 2.75701 30.854 3.53885 30.854 4.4559V4.46766C30.854 5.39058 30.6774 6.17831 30.3242 6.83082C29.971 7.48333 29.4665 7.98889 28.7979 8.32984C28.1294 8.67079 27.3347 8.84715 26.4013 8.84715H22.8379V0.152832H22.8442ZM26.1743 7.34225C26.7545 7.34225 27.2464 7.23644 27.6438 7.01893C28.0411 6.80143 28.3438 6.47811 28.552 6.05486C28.7601 5.6316 28.861 5.10254 28.861 4.47354V4.46178C28.861 3.85629 28.7538 3.35074 28.5457 2.93337C28.3375 2.51599 28.0285 2.19855 27.6249 1.98105C27.2212 1.76354 26.7419 1.65773 26.168 1.65773H24.793V7.34225H26.168H26.1743Z" fill="#2FB22F"/>
<path d="M35.0039 0.152832H37.2618L39.917 6.40169H39.9549L42.5975 0.152832H44.8616V8.85303H43.1146V2.96864H42.219L44.1742 0.387972L40.554 8.84715H39.3242L35.6977 0.393851L37.6528 2.97452H36.7446V8.85303H35.0039V0.152832Z" fill="#2FB22F"/>
<path d="M49.1944 5.60221L45.9463 0.152832H48.0528L50.1467 3.86805H50.1909L52.2785 0.152832H54.3913L51.1369 5.60221V8.85303H49.1818V5.60221H49.1944Z" fill="#2FB22F"/>
<path d="M59.7138 8.6943C59.1651 8.49443 58.7299 8.2005 58.4146 7.8184C58.0992 7.4363 57.9226 6.98365 57.8848 6.44871V6.35465H59.7201L59.7327 6.41931C59.7768 6.6427 59.8841 6.83669 60.0607 7.00129C60.2373 7.16588 60.4643 7.28933 60.7418 7.38339C61.0193 7.47157 61.341 7.5186 61.6942 7.5186C62.0473 7.5186 62.369 7.47157 62.6276 7.38339C62.8862 7.29521 63.088 7.16588 63.2331 6.99541C63.3781 6.83081 63.4475 6.63682 63.4475 6.41344C63.4475 6.11363 63.3213 5.88437 63.0754 5.71977C62.8294 5.55517 62.4131 5.41409 61.8392 5.30828L60.8553 5.12016C59.9345 4.94969 59.2471 4.66164 58.774 4.25014C58.3073 3.83865 58.074 3.3037 58.074 2.65119C58.074 2.11624 58.2316 1.65184 58.5407 1.25798C58.8434 0.864122 59.266 0.558439 59.8021 0.335056C60.3382 0.111673 60.9499 0.00585938 61.6374 0.00585938C62.3249 0.00585938 62.9808 0.111673 63.5042 0.323299C64.0277 0.534925 64.4377 0.828851 64.7278 1.21095C65.0179 1.59306 65.1819 2.03395 65.2134 2.54538V2.65707H63.3781L63.3655 2.58653C63.334 2.35726 63.2457 2.16327 63.088 1.99867C62.9366 1.83995 62.7348 1.71063 62.4888 1.62245C62.2429 1.53427 61.9591 1.48724 61.6374 1.48724C61.3157 1.48724 61.0193 1.53427 60.7797 1.62245C60.54 1.71063 60.3571 1.83408 60.2246 1.9928C60.0985 2.15152 60.0354 2.33375 60.0354 2.5395C60.0354 2.82167 60.1616 3.04505 60.4075 3.20965C60.6598 3.37425 61.0508 3.50945 61.5869 3.60939L62.5771 3.7975C63.2267 3.92095 63.7628 4.08555 64.1791 4.29717C64.5953 4.5088 64.9044 4.77921 65.1062 5.10253C65.308 5.42585 65.4089 5.81383 65.4089 6.26647C65.4089 6.83081 65.2576 7.31285 64.9612 7.72434C64.6584 8.12996 64.2295 8.4474 63.6682 8.67078C63.1069 8.89417 62.4321 9.00586 61.65 9.00586C60.9121 9.00586 60.2688 8.90592 59.7201 8.70018L59.7138 8.6943Z" fill="#2FB22F"/>
<path d="M66.7275 0.152832H68.6827V3.68582H72.8894V0.152832H74.8446V8.85303H72.8894V5.19659H68.6827V8.85303H66.7275V0.152832Z" fill="#2FB22F"/>
<path d="M76.5225 0.152832H82.7033V1.65185H78.4713V3.73872H82.4636V5.1672H78.4713V7.34813H82.7033V8.84715H76.5225V0.152832Z" fill="#2FB22F"/>
<path d="M84.248 0.152832H90.4288V1.65185H86.1969V3.73872H90.1892V5.1672H86.1969V7.34813H90.4288V8.84715H84.248V0.152832Z" fill="#2FB22F"/>
<path d="M91.9736 0.152832H93.9288V8.85303H91.9736V0.152832ZM92.9575 4.68516H95.2469C95.8083 4.68516 96.2434 4.54996 96.5525 4.28542C96.8615 4.02089 97.0192 3.63879 97.0192 3.15087V3.13912C97.0192 2.63944 96.8615 2.25734 96.5525 1.99868C96.2434 1.73415 95.8083 1.60482 95.2469 1.60482H92.9575V0.152832H95.7263C96.3822 0.152832 96.9561 0.276281 97.4481 0.523178C97.94 0.770076 98.3247 1.11691 98.5959 1.56367C98.8671 2.01044 99.0059 2.53363 99.0059 3.13324V3.14499C99.0059 3.73872 98.8671 4.26191 98.5959 4.70868C98.3247 5.15544 97.94 5.50228 97.4481 5.74917C96.9561 5.99607 96.3822 6.11952 95.7263 6.11952H92.9575V4.69104V4.68516Z" fill="#2FB22F"/>
</g>
<defs>
<clipPath id="clip0_376_2173">
<rect width="99" height="9" fill="white"/>
</clipPath>
</defs>
</svg>
