<svg width="20" height="20" viewBox="0 0 20 20" fill="none" xmlns="http://www.w3.org/2000/svg">
<path d="M9.84953 2.5C14.343 2.5 18.0813 5.73313 18.865 10C18.0813 14.2668 14.343 17.5 9.84953 17.5C5.35605 17.5 1.61774 14.2668 0.833984 10C1.61774 5.73313 5.35605 2.5 9.84953 2.5ZM9.84953 15.8333C13.3792 15.8333 16.3995 13.3767 17.164 10C16.3995 6.62336 13.3792 4.16667 9.84953 4.16667C6.31979 4.16667 3.29947 6.62336 2.53493 10C3.29947 13.3767 6.31979 15.8333 9.84953 15.8333ZM9.84953 13.75C7.77844 13.75 6.0995 12.0711 6.0995 10C6.0995 7.92893 7.77844 6.25 9.84953 6.25C11.9205 6.25 13.5995 7.92893 13.5995 10C13.5995 12.0711 11.9205 13.75 9.84953 13.75ZM9.84953 12.0833C11.0001 12.0833 11.9329 11.1506 11.9329 10C11.9329 8.84942 11.0001 7.91667 9.84953 7.91667C8.69895 7.91667 7.76617 8.84942 7.76617 10C7.76617 11.1506 8.69895 12.0833 9.84953 12.0833Z" fill="#5F7B6D"/>
</svg>
