<svg width="20" height="20" viewBox="0 0 20 20" fill="none" xmlns="http://www.w3.org/2000/svg">
<path d="M7.78622 15.6516L6.17634 15.2201L6.83257 12.7711C5.84164 12.4061 4.93116 11.8748 4.13495 11.2111L2.34051 13.0056L1.162 11.8271L2.95644 10.0326C1.96383 8.8419 1.26744 7.39553 0.980469 5.8068L2.62054 5.50861C3.25306 9.01048 6.31674 11.6667 10.0008 11.6667C13.6849 11.6667 16.7487 9.01048 17.3812 5.50861L19.0212 5.8068C18.7342 7.39553 18.0378 8.8419 17.0452 10.0326L18.8397 11.8271L17.6612 13.0056L15.8667 11.2111C15.0705 11.8748 14.16 12.4061 13.1691 12.7711L13.8253 15.2201L12.2155 15.6516L11.559 13.2015C11.0526 13.2882 10.532 13.3334 10.0008 13.3334C9.46974 13.3334 8.94907 13.2882 8.44274 13.2015L7.78622 15.6516Z" fill="#5F7B6D"/>
</svg>
