<svg width="32" height="32" viewBox="0 0 32 32" fill="none" xmlns="http://www.w3.org/2000/svg">
<path d="M20.5835 10.4999H25.1668V12.3333H23.3335V24.2499C23.3335 24.7562 22.9231 25.1666 22.4168 25.1666H9.5835C9.07724 25.1666 8.66683 24.7562 8.66683 24.2499V12.3333H6.8335V10.4999H11.4168V7.74992C11.4168 7.24366 11.8272 6.83325 12.3335 6.83325H19.6668C20.1731 6.83325 20.5835 7.24366 20.5835 7.74992V10.4999ZM21.5002 12.3333H10.5002V23.3333H21.5002V12.3333ZM13.2502 15.0833H15.0835V20.5833H13.2502V15.0833ZM16.9168 15.0833H18.7502V20.5833H16.9168V15.0833ZM13.2502 8.66659V10.4999H18.7502V8.66659H13.2502Z" fill="#313331"/>
</svg>
