<svg width="18" height="19" viewBox="0 0 18 19" fill="none" xmlns="http://www.w3.org/2000/svg">
<g id="ic_map_line" clip-path="url(#clip0_1188_7868)">
<path id="Vector" d="M9 16.1746L12.7123 12.4623C14.7625 10.4121 14.7625 7.08794 12.7123 5.03769C10.6621 2.98744 7.33794 2.98744 5.28769 5.03769C3.23744 7.08794 3.23744 10.4121 5.28769 12.4623L9 16.1746ZM9 18.2959L4.22703 13.523C1.59099 10.8869 1.59099 6.61307 4.22703 3.97703C6.86307 1.34099 11.1369 1.34099 13.773 3.97703C16.409 6.61307 16.409 10.8869 13.773 13.523L9 18.2959ZM9 10.25C9.82845 10.25 10.5 9.57845 10.5 8.75C10.5 7.92157 9.82845 7.25 9 7.25C8.17155 7.25 7.5 7.92157 7.5 8.75C7.5 9.57845 8.17155 10.25 9 10.25ZM9 11.75C7.34314 11.75 6 10.4068 6 8.75C6 7.09314 7.34314 5.75 9 5.75C10.6568 5.75 12 7.09314 12 8.75C12 10.4068 10.6568 11.75 9 11.75Z" fill="#8AA594"/>
</g>
<defs>
<clipPath id="clip0_1188_7868">
<rect width="18" height="18" fill="white" transform="translate(0 0.5)"/>
</clipPath>
</defs>
</svg>
