<svg width="32" height="32" viewBox="0 0 32 32" fill="none" xmlns="http://www.w3.org/2000/svg">
<rect width="32" height="32" rx="8" fill="#77907D"/>
<path d="M11.3894 20.5386C9.33894 19.0901 8 16.7014 8 14C8 9.58172 11.5817 6 16 6C20.4183 6 24 9.58172 24 14C24 16.7014 22.6611 19.0901 20.6106 20.5386L22.6936 25.2996C22.8043 25.5526 22.6889 25.8474 22.4359 25.9581C22.3727 25.9857 22.3045 26 22.2355 26H9.76451C9.48837 26 9.26451 25.7761 9.26451 25.5C9.26451 25.431 9.27878 25.3628 9.30643 25.2996L11.3894 20.5386ZM12.1185 14.9704C12.5522 16.7106 14.1255 18 16 18C17.8745 18 19.4478 16.7106 19.8815 14.9704L17.9407 14.4852C17.7239 15.3553 16.9372 16 16 16C15.0628 16 14.2761 15.3553 14.0593 14.4852L12.1185 14.9704Z" fill="white"/>
</svg>
