<svg width="24" height="25" viewBox="0 0 24 25" fill="none" xmlns="http://www.w3.org/2000/svg">
<path fill-rule="evenodd" clip-rule="evenodd" d="M3.95491 5.56107C3 6.8754 3 8.75027 3 12.5C3 16.2497 3 18.1246 3.95491 19.4389C4.26331 19.8634 4.6366 20.2367 5.06107 20.5451C6.3754 21.5 8.25027 21.5 12 21.5C15.7497 21.5 17.6246 21.5 18.9389 20.5451C19.3634 20.2367 19.7367 19.8634 20.0451 19.4389C21 18.1246 21 16.2497 21 12.5C21 8.75027 21 6.8754 20.0451 5.56107C19.7367 5.1366 19.3634 4.76331 18.9389 4.45491C17.6246 3.5 15.7497 3.5 12 3.5C8.25027 3.5 6.3754 3.5 5.06107 4.45491C4.6366 4.76331 4.26331 5.1366 3.95491 5.56107ZM18.0789 8.47678C18.3423 8.15704 18.2965 7.68437 17.9768 7.42105C17.657 7.15773 17.1844 7.20348 16.9211 7.52322L11.3214 14.3227C10.9801 14.7372 10.7727 14.9864 10.6011 15.1442C10.5221 15.2169 10.475 15.2466 10.4523 15.2582C10.4462 15.2613 10.4423 15.2629 10.4403 15.2636C10.4383 15.2631 10.4342 15.2619 10.4279 15.2593C10.4041 15.25 10.3545 15.225 10.2687 15.1603C10.0828 15.0197 9.85235 14.7917 9.47265 14.412L7.03033 11.9697C6.73744 11.6768 6.26256 11.6768 5.96967 11.9697C5.67678 12.2626 5.67678 12.7374 5.96967 13.0303L8.41199 15.4727L8.4456 15.5063C8.78057 15.8413 9.08504 16.1459 9.36434 16.3569C9.67014 16.588 10.0436 16.7847 10.5126 16.762C10.9817 16.7394 11.3345 16.5077 11.6166 16.2482C11.8743 16.0112 12.148 15.6787 12.4491 15.313L12.4793 15.2763L18.0789 8.47678Z" fill="#5F7B6D"/>
</svg>
